<svg width="20" height="20" viewBox="0 0 20 20" fill="none" xmlns="http://www.w3.org/2000/svg">
<path d="M16.8281 2.57812H3.17188C2.84346 2.57812 2.57812 2.84346 2.57812 3.17188V16.8281C2.57812 17.1565 2.84346 17.4219 3.17188 17.4219H16.8281C17.1565 17.4219 17.4219 17.1565 17.4219 16.8281V3.17188C17.4219 2.84346 17.1565 2.57812 16.8281 2.57812ZM15.1137 6.91064H13.928C12.9984 6.91064 12.8185 7.35225 12.8185 8.00166V9.43223H15.0376L14.7481 11.6718H12.8185V17.4219H10.5047V11.6736H8.56943V9.43223H10.5047V7.78086C10.5047 5.86416 11.6755 4.81953 13.3862 4.81953C14.2063 4.81953 14.9096 4.88076 15.1155 4.90859V6.91064H15.1137Z" fill="#227BEF"/>
</svg>
