<svg xmlns="http://www.w3.org/2000/svg" viewBox="0 0 998.1 272.8">
	<path fill="#10298E" d="M221.8 87h-68.3c0-11.2-1.3-18.7-3.9-22.6 -4.1-5.7-15.3-8.5-33.6-8.5 -17.8 0-29.7 1.6-35.4 4.9 -5.8 3.3-8.7 10.4-8.7 21.4 0 9.9 2.6 16.5 7.7 19.6 3.7 2.2 8.5 3.5 14.6 3.9l13.8 1c29.5 2 48 3.3 55.3 4.1 23.3 2.4 40.3 8.6 50.8 18.6 8.3 7.9 13.2 18.1 14.8 30.8 0.9 7.6 1.4 16.2 1.4 25.7 0 22-2.1 38-6.3 48.2 -7.6 18.7-24.7 30.5-51.3 35.5 -11.1 2.1-28.2 3.1-51.1 3.1 -38.2 0-64.9-2.3-80-6.9 -18.5-5.6-30.7-17-36.5-34.1C1.6 222.3 0 206.5 0 184.3h68.3c0 2.5 0 4.4 0 5.7 0 11.8 3.4 19.5 10.2 22.9 4.7 2.3 10.4 3.6 17.1 3.7h25.1c12.8 0 21-0.7 24.5-2 6.3-2.5 10.4-6.4 12.4-11.9 1-3.4 1.6-7.8 1.6-13.1 0-12-4.4-19.3-13.1-21.9 -3.3-1-18.5-2.5-45.7-4.3 -21.8-1.6-37-3.1-45.5-4.5 -22.4-4.2-37.3-12.8-44.7-25.8C3.6 121.8 0.3 105 0.3 82.5c0-17.1 1.8-30.8 5.3-41.1 3.5-10.3 9.2-18.2 17.1-23.5C34.2 9.7 49 4.8 66.9 3.4c14.9-1.3 31.5-2 49.7-2 28.7 0 49.1 1.6 61.3 4.9 29.7 8 44.6 30.4 44.6 67.1C222.4 76.5 222.2 81 221.8 87" />
	<path fill="#10298E" d="M522.1 272.8V0h107 16.8 13c18.8 0 33.1 1.5 42.9 4.6 22.5 7 37.6 21.5 45.3 43.3 4 11.4 6 28.7 6 51.7 0 27.7-2.2 47.5-6.6 59.7 -8.8 23.9-26.8 37.7-54.1 41.3 -3.2 0.5-16.9 1-40.9 1.4l-12.2 0.4h-43.8v70.4H522.1zM595.5 139.1h45.8c14.5-0.5 23.3-1.6 26.5-3.4 4.3-2.4 7.3-7.2 8.7-14.3 0.9-4.8 1.4-11.9 1.4-21.3 0-11.5-0.9-20.1-2.8-25.7 -2.6-7.8-9-12.6-19-14.3 -2-0.3-6.7-0.4-14.2-0.4h-46.4V139.1z" />
	<path fill="#10298E" d="M909.8 225.6h-98.2l-13.2 47.1h-76L804.4 0h110.7l83 272.8h-74.4L909.8 225.6zM895.2 172.5L860.8 54.2l-33.4 118.2H895.2z" />
	<path fill="#FFBE00" d="M420.8 38.4c30.3 0 57.3 13.9 75.1 35.8l15.8-33.9c-24.7-23.4-58.4-37.8-95.6-37.8 -57.8 0-107.3 34.9-127.6 84.4h-30.9l-18.2 39.1h39.7c-0.3 3.6-0.5 7.2-0.5 10.9 0 4.5 0.2 8.9 0.7 13.3h-19.9l-18.2 39.1h48.3c20.9 48.2 69.7 82 126.7 82 28.7 0 55.3-8.6 77.4-23.3V200c-17.8 20.2-43.7 33-72.7 33 -33.8 0-63.6-17.4-80.9-43.9H441l18.2-39.1H324.9c-0.7-4.7-1.1-9.5-1.1-14.4 0-3.3 0.2-6.6 0.5-9.8h146.1l18.2-39.1H337C353.8 57.9 385 38.4 420.8 38.4" />
	<path fill="#10298E" d="M420.8 39.5c28.9 0 55.9 12.9 74.2 35.4l1.2 1.5 0.8-1.7 15.8-33.9 0.4-0.8 -0.6-0.6c-26-24.6-60.2-38.1-96.4-38.1 -28.2 0-55.4 8.2-78.5 23.9 -22.6 15.2-40 36.4-50.2 61.3l1.1-0.7h-30.9 -0.8l-0.3 0.7 -18.2 39.1 -0.8 1.7h1.8 39.7l-1.2-1.3c-0.3 4.1-0.5 7.7-0.5 11 0 4.4 0.2 8.9 0.7 13.4l1.2-1.3h-19.9 -0.7l-0.3 0.7L240 188.7l-0.8 1.7h1.8 48.3l-1.1-0.7c21.8 50.3 71.9 82.7 127.8 82.7 28 0 55-8.1 78-23.5l0.5-0.3v-0.6V200v-3.1l-2 2.3c-18.2 20.7-44.4 32.6-71.8 32.6 -32.3 0-62.2-16.2-80-43.3l-1 1.8H441h0.8l0.3-0.7 18.2-39.1 0.8-1.7h-1.8H324.9l1.2 1c-0.7-4.7-1.1-9.5-1.1-14.2 0-3.2 0.2-6.5 0.5-9.7l-1.2 1.1h146.1 0.8l0.3-0.7 18.2-39.1 0.8-1.7h-1.9H337l1 1.8C355.1 57.9 386.8 39.5 420.8 39.5M337 88h151.7l-1.1-1.7 -18.2 39.1 1.1-0.7H324.4h-1.1l-0.1 1.1c-0.3 3.3-0.5 6.6-0.5 9.9 0 4.8 0.4 9.7 1.1 14.6l0.2 1h1 134.3l-1.1-1.7 -18.2 39.1 1.1-0.7H339.8h-2.2l1.2 1.8c18.2 27.8 48.9 44.4 81.9 44.4 28.1 0 54.9-12.2 73.6-33.4l-2.1-0.8v47.9l0.5-1c-22.7 15.1-49.2 23.1-76.7 23.1 -54.9 0-104.2-31.9-125.6-81.3l-0.3-0.7h-0.8 -48.3l1.1 1.7 18.2-39.1 -1.1 0.7h19.9 1.3l-0.1-1.3c-0.4-4.4-0.7-8.9-0.7-13.2 0-3.3 0.2-6.9 0.5-10.9l0.1-1.3h-1.3 -39.7l1.1 1.7 18.2-39.1 -1.1 0.7h30.9 0.8l0.3-0.7c10-24.4 27.1-45.2 49.3-60.2 22.8-15.3 49.5-23.4 77.2-23.4 35.5 0 69.2 13.3 94.8 37.5l-0.3-1.4 -15.8 33.9 2-0.2c-18.7-23-46.4-36.2-76-36.2 -34.8 0-67.2 18.8-84.8 49l-1 1.8H337z" />
</svg>