<svg xmlns="http://www.w3.org/2000/svg" viewBox="0 0 998 273"><path fill="#10298E" d="M222 87h-68c0-11-2-19-4-23-5-5-16-8-34-8s-30 2-35 5c-6 3-9 10-9 21 0 10 2 17 8 20 3 2 8 3 14 4l14 1 55 4c24 2 41 8 51 18 8 8 13 19 15 31a220 220 0 0 1-5 74c-8 19-25 31-51 36-11 2-29 3-51 3-39 0-65-3-80-7-19-6-31-17-37-34-3-10-5-25-5-48h68v6c0 12 4 20 10 23 5 2 11 4 18 4h25l24-2c6-3 11-7 13-12l1-13c0-12-4-20-13-22-3-1-18-3-46-5l-45-4c-23-4-37-13-45-26-6-11-10-28-10-50 0-18 2-31 6-42 3-10 9-18 17-23C34 10 49 5 67 3a575 575 0 0 1 111 3c30 8 45 31 45 67l-1 14M522 273V0h137c19 0 33 2 43 5 22 7 37 21 45 43 4 11 6 29 6 52 0 27-2 47-7 59-8 24-26 38-54 42l-41 1h-56v71h-73zm74-134h45c15 0 24-2 27-3 4-3 7-8 8-15l2-21c0-11-1-20-3-26-2-7-9-12-19-14h-61v79zM910 226h-98l-14 47h-76L804 0h111l83 273h-74l-14-47zm-15-53L861 54l-34 118h68z"/><path fill="#FFBE00" d="M421 38c30 0 57 14 75 36l16-34a139 139 0 0 0-223 47h-31l-19 39h40a130 130 0 0 0 0 24h-20l-18 39h49a139 139 0 0 0 204 59v-48a97 97 0 0 1-154-11h101l18-39H325a98 98 0 0 1-1-24h146l19-39H337c17-29 48-49 84-49"/><path fill="#10298E" d="M421 40c29 0 56 12 74 35l1 1 1-1 16-34v-2a139 139 0 0 0-175-14c-23 15-40 37-51 62l2-1h-32l-19 40v1h41l-1-1a153 153 0 0 0 0 24l1-1h-20l-1 1-18 39-1 1h50-1c22 50 72 82 128 82 28 0 55-8 78-23h1v-52l-2 2a96 96 0 0 1-152-10l-1 1h102l18-39 1-2H325l1 1a97 97 0 0 1-1-24l-1 1h147v-1l19-39v-1H338l1 1c17-29 49-47 83-47m-84 48h152l-1-2-19 39h1-147v1a109 109 0 0 0 1 24v1h135l-1-1-18 39 1-1H338l1 2a98 98 0 0 0 155 11l-2-1v48l1-1a138 138 0 0 1-203-58v-1h-49l1 2 18-39h-1 21v-1a148 148 0 0 1 0-24v-1h-41l1 1 19-39-2 1h32v-1a138 138 0 0 1 221-46v-1l-15 34 2-1a98 98 0 0 0-161 13l-1 2h2z"/></svg>