<svg width="20" height="20" viewBox="0 0 20 20" fill="none" xmlns="http://www.w3.org/2000/svg">
<path d="M16.8281 2.57812H3.17188C2.84346 2.57812 2.57812 2.84346 2.57812 3.17188V16.8281C2.57812 17.1565 2.84346 17.4219 3.17188 17.4219H16.8281C17.1565 17.4219 17.4219 17.1565 17.4219 16.8281V3.17188C17.4219 2.84346 17.1565 2.57812 16.8281 2.57812ZM6.98115 15.2269H4.77871V8.14268H6.98115V15.2269ZM5.88086 7.17412C5.62838 7.17412 5.38157 7.09925 5.17164 6.95898C4.96171 6.81871 4.79809 6.61934 4.70147 6.38608C4.60485 6.15282 4.57957 5.89614 4.62883 5.64851C4.67808 5.40088 4.79966 5.17342 4.97819 4.99489C5.15672 4.81636 5.38419 4.69478 5.63181 4.64552C5.87944 4.59627 6.13612 4.62155 6.36938 4.71817C6.60264 4.81479 6.80201 4.97841 6.94228 5.18834C7.08255 5.39827 7.15742 5.64508 7.15742 5.89756C7.15557 6.60264 6.58408 7.17412 5.88086 7.17412ZM15.2269 15.2269H13.0263V11.7812C13.0263 10.9593 13.0114 9.90352 11.8814 9.90352C10.7366 9.90352 10.5604 10.7979 10.5604 11.7219V15.2269H8.36162V8.14268H10.4731V9.11123H10.5028C10.796 8.55459 11.5141 7.96641 12.5865 7.96641C14.8168 7.96641 15.2269 9.43408 15.2269 11.3415V15.2269Z" fill="#1569BF"/>
</svg>
