<svg xmlns="http://www.w3.org/2000/svg" viewBox="0 0 512 210"><path d="M94 27c-6 7-16 13-26 12a38 38 0 0 1 34-39c1 10-2 20-8 27m8 14c-14-1-26 8-32 8-7 0-17-8-28-8-14 1-27 9-35 22-15 26-4 64 11 85 7 10 15 21 27 21 10 0 14-7 27-7s17 7 28 7c12 0 19-11 26-21 8-12 11-23 12-24-1 0-23-9-23-34 0-22 18-32 18-32a40 40 0 0 0-31-17m81-29v156h24v-53h33c31 0 52-21 52-52 0-30-21-51-51-51h-58zm24 20h28c21 0 33 11 33 31s-12 31-33 31h-28V32zm130 137c15 0 29-8 35-20h1v19h22V90c0-22-18-37-46-37-25 0-44 15-45 35h22c2-10 11-16 23-16 15 0 23 7 23 20v8l-30 2c-28 2-44 13-44 33 0 21 16 34 39 34zm6-18c-13 0-21-7-21-16 0-10 8-16 23-17l27-1v9c0 14-12 25-29 25zm82 59c24 0 35-9 45-36l42-119h-25l-28 92h-1l-28-92h-25l41 113-3 7c-3 12-9 16-20 16h-7v19h9z"/></svg>