<svg xmlns="http://www.w3.org/2000/svg" viewBox="0 0 1000 776"><path d="M182 774v-51c0-20-12-33-33-33-10 0-21 4-29 15-6-10-14-15-27-15-9 0-17 3-24 12v-10H51v82h18v-45c0-15 7-22 19-22s18 8 18 22v45h18v-45c0-15 9-22 20-22 12 0 18 8 18 22v45h20zm267-82h-29v-25h-18v25h-17v16h17v38c0 19 7 30 28 30 8 0 16-3 22-6l-5-16c-5 4-11 5-15 5-9 0-12-5-12-14v-37h29v-16zm153-2c-11 0-17 5-22 12v-10h-18v82h18v-46c0-14 6-22 17-22l12 2 5-17-12-1zm-231 9c-9-6-21-9-34-9-20 0-34 10-34 27 0 13 10 21 28 24l9 1c9 1 15 4 15 8 0 6-7 10-19 10s-22-4-28-8l-8 14c9 6 22 10 35 10 24 0 38-11 38-27 0-14-12-22-29-25h-8c-8-1-14-3-14-8 0-6 6-10 15-10 11 0 21 5 26 7l8-14zm479-9c-11 0-17 5-22 12v-10h-18v82h18v-46c0-14 6-22 17-22l12 2 5-17-12-1zm-230 43c0 25 17 43 44 43 12 0 20-3 29-10l-9-14c-7 5-14 8-21 8-15 0-25-11-25-27 0-15 10-26 25-27 7 0 14 3 21 8l9-14c-9-7-17-10-29-10-27 0-44 18-44 43zm166 0v-41h-18v10c-6-8-14-12-26-12-23 0-41 18-41 43s18 43 41 43c12 0 21-4 26-12v10h18v-41zm-66 0c0-15 10-27 25-27s25 12 25 27-10 27-25 27c-15-1-25-12-25-27zm-215-43c-24 0-41 17-41 43s17 43 42 43c12 0 24-4 33-11l-9-13c-6 5-15 8-24 8-11 0-22-5-24-19h60v-7c1-27-14-44-37-44zm0 16c11 0 19 6 20 19h-43c2-11 10-19 23-19zm447 27v-74h-18v43c-6-8-15-12-26-12-23 0-41 18-41 43s18 43 41 43c12 0 21-4 26-12v10h18v-41zm-66 0c0-15 9-27 25-27 14 0 25 12 25 27s-11 27-25 27c-16-1-25-12-25-27zm-603 0v-41h-18v10c-6-8-14-12-26-12-23 0-41 18-41 43s18 43 41 43c12 0 21-4 26-12v10h18v-41zm-67 0c0-15 10-27 25-27s25 12 25 27-10 27-25 27c-15-1-25-12-25-27z"/><path fill="#ff5f00" d="M363 69h275v490H363z" class="st1"/><path fill="#eb001b" d="M382 309c0-99 46-186 118-243a309 309 0 1 0 0 486 309 309 0 0 1-118-243z" class="st2"/><path fill="#f79e1b" d="M1000 309a309 309 0 0 1-500 243 309 309 0 0 0 0-486 309 309 0 0 1 500 243z" class="st3"/></svg>