<svg xmlns="http://www.w3.org/2000/svg" fill="#A1A1A1" class="main-header__logo-image" viewBox="0 0 436 173"><path fill="#5f6368" d="M206 85v50h-16V10h43a39 39 0 0 1 27 11 35 35 0 0 1 12 26 35 35 0 0 1-12 27q-11 11-27 11h-27Zm0-60v44h27a21 21 0 0 0 16-6 21 21 0 0 0 0-31 21 21 0 0 0-16-7h-27ZM309 47q18 0 28 9t11 26v53h-16v-12h-1q-9 15-26 15-14 0-24-8a27 27 0 0 1-9-21q0-14 10-21t27-8q14 0 23 5v-4a18 18 0 0 0-6-14 23 23 0 0 0-16-6q-13 0-21 12l-15-9q12-17 35-17Zm-21 62a13 13 0 0 0 6 11 20 20 0 0 0 12 4 26 26 0 0 0 18-8q8-7 8-17-7-6-21-6-10 0-16 4c-5 4-7 7-7 12ZM436 50l-54 123h-16l20-43-36-80h18l25 61h1l24-61Z"/><path fill="#4285f4" d="M141 74a86 86 0 0 0-1-15H72v28h39a33 33 0 0 1-14 22v18h23c13-13 21-31 21-53Z"/><path fill="#34a853" d="M72 144c19 0 36-6 48-17l-23-18c-7 4-15 7-25 7-19 0-35-13-40-30H8v18a72 72 0 0 0 64 40Z"/><path fill="#fbbc04" d="M32 86a43 43 0 0 1 0-28V40H8a72 72 0 0 0 0 64Z"/><path fill="#ea4335" d="M72 29a39 39 0 0 1 28 10l20-20A69 69 0 0 0 72 0 72 72 0 0 0 8 40l24 18c5-17 21-29 40-29Z"/></svg>