<svg xmlns="http://www.w3.org/2000/svg" viewBox="0 0 1000 998"><path fill="#016fd0" d="M0 0h998v538l-50 78 50 68v314H0V490l31-36-31-34z"/><path fill="#fff" d="M194 695V538h165l18 24 19-24h602v146s-16 11-34 11H630l-20-25v25h-65v-42s-9 6-29 6h-22v36H394l-18-24-18 24zM0 421l37-88h65l21 49v-49h81l12 36 13-36h360v18s19-18 51-18l117 1 20 48v-49h68l18 28v-28h68v157h-68l-17-28v28h-99l-10-25h-27l-10 25h-67c-26 0-44-17-44-17v17H488l-20-25v25H92l-9-25H56l-10 25H0z"/><path fill="#016fd0" d="M51 353 0 470h33l9-24h54l10 24h33L89 353H51zm18 27 17 41H53l16-41zM143 470V353h46l28 75 26-75h46v117h-29v-87l-31 87h-26l-31-87v87zM309 470V353h96v26h-66v20h64v25h-64v20h66v26zM422 353v117h29v-42h13l35 42h36l-39-43c16-2 32-15 32-36 0-25-19-38-41-38h-65zm29 26h34c8 0 14 6 14 12 0 8-8 13-14 13h-34v-25zM570 470h-30V353h30zM641 470h-6c-32 0-51-25-51-58 0-35 19-59 59-59h32v27h-34c-16 0-27 13-27 32 0 23 13 32 32 32h7zM705 353l-51 117h33l10-24h54l9 24h34l-51-117h-38zm19 27 16 41h-33l17-41zM797 470V353h37l48 73v-73h29v117h-36l-49-76v76zM214 675V558h95v26h-66v20h65v25h-65v21h66v25zM682 675V558h96v26h-66v20h64v25h-64v21h66v25zM313 675l47-58-48-59h37l28 37 29-37h35l-47 58 47 59h-37l-28-36-27 36zM444 558v117h30v-37h31c26 0 46-14 46-41 0-22-15-39-42-39h-65zm30 26h33c8 0 14 5 14 14 0 8-6 13-14 13h-33v-27zM564 558v117h29v-42h13l35 42h36l-39-43c16-1 32-15 32-36 0-25-19-38-41-38h-65zm29 26h34c8 0 14 6 14 12 0 8-8 13-14 13h-34v-25zM792 675v-25h58c9 0 13-5 13-10s-4-10-13-10h-26c-23 0-36-14-36-35 0-19 12-37 46-37h57l-12 26h-50c-9 0-12 5-12 10s4 10 11 10h28c25 0 36 15 36 34 0 20-12 37-38 37zM899 675v-25h59c9 0 12-5 12-10s-3-10-12-10h-27c-23 0-35-14-35-35 0-19 11-37 46-37h57l-13 26h-49c-10 0-12 5-12 10s3 10 10 10h28c26 0 37 15 37 34 0 20-12 37-38 37z"/></svg>