<svg xmlns="http://www.w3.org/2000/svg" viewBox="0 0 652 652">
	<g transform="translate(-30 -30)translate(30 30)">
		<polygon fill="#FFFFFF" points="44.8 87.3 44.8 562.8 374.7 562.8 484.6 533 559.5 468.1 596.1 366 596.1 248.1 541.3 153.4 445.8 99.6 353.8 91.9 " />
		<path fill="#0A0B09" d="M54.5 95.2v453h275.2c166.2 0 256.6-77.4 256.6-227.1 0-153.8-98-225.9-256.6-225.9H54.5zM329.7 71.7c243.7 0 280.1 156.3 280.1 249.4 0 161.6-99.5 250.6-280.1 250.6 0 0-292.8 0-298.7 0 0-5.9 0-494.1 0-500C36.9 71.7 329.7 71.7 329.7 71.7z" />
		<polygon fill="#0A0B09" points="92.4 512.2 180.5 512.2 180.5 355.4 92.4 355.4 " />
		<path fill="#0A0B09" d="M191.1 276.4c0 30.2-24.5 54.8-54.8 54.8 -30.2 0-54.8-24.5-54.8-54.8 0-30.2 24.5-54.8 54.8-54.8C166.6 221.7 191.1 246.2 191.1 276.4" />
		<path fill="#D50172" d="M224.3 250.9c0 14.2 0 37 0 51.1 7.8 0 15.7 0 15.7 0 10.9 0 20.9-3.1 20.9-26 0-22.3-11.2-25.2-20.9-25.2C240 250.9 232.1 250.9 224.3 250.9zM486 225.5h25.4c0 0 0 57.9 0 76.5 5.6 0 21.1 0 37.6 0 -10.3-138.9-119.6-168.9-218.8-168.9H224.3v92.4H240c28.6 0 46.3 19.4 46.3 50.5 0 32.1-17.3 51.3-46.3 51.3h-15.7v184.9h105.8c161.4 0 217.6-75 219.5-184.9H486V225.5zM415.3 282.4h18.4l-8.4-28.8h-1.5L415.3 282.4zM375.7 327.4l30.7-101.9h36.1l30.7 101.9h-26.4l-5.8-19.7h-33.2l-5.8 19.7H375.7zM363.5 302v25.4h-62.8V225.5h60.8v25.4c0 0-21.6 0-35.4 0 0 3.5 0 7.5 0 11.8h33.5v25.4h-33.5c0 5.1 0 9.9 0 14C340.3 302 363.5 302 363.5 302z" />
	</g>
</svg>