<svg xmlns="http://www.w3.org/2000/svg" viewBox="0 0 652 652"><path fill="#FFF" d="M45 87v476h330l110-30 75-65 36-102V248l-55-95-95-53-92-8z"/><path fill="#0A0B09" d="M55 95v453h275c166 0 256-77 256-227 0-154-98-226-256-226H55zm275-23c243 0 280 156 280 249 0 162-100 251-280 251H31V72h299z"/><path fill="#0A0B09" d="M92 512h89V355H92zM191 276a55 55 0 1 1-110 0 55 55 0 0 1 110 0"/><path fill="#D50172" d="M224 251v51h16c11 0 21-3 21-26 0-22-11-25-21-25h-16zm262-25h25v76h38c-10-139-120-169-219-169H224v93h16c29 0 46 19 46 50 0 32-17 51-46 51h-16v185h106c162 0 218-75 220-185h-64V226zm-71 56h19l-9-28h-1l-9 28zm-39 45 30-102h36l31 102h-26l-6-19h-33l-6 19h-26zm-12-25v25h-63V226h60l1 25h-36v12h34v25h-34v14h38z"/></svg>