<svg xmlns="http://www.w3.org/2000/svg" viewBox="0 0 886 381"><path fill="#000268" d="M0 68C0 31 31 0 69 0h748c38 0 69 31 69 68v245c0 37-31 68-69 68H69c-38 0-69-31-69-68V68z"/><path fill="#fff" d="M28 71v239c0 24 19 43 43 43h392V28H71c-24 0-43 19-43 43zm537 118c0 16-8 26-20 26-11 0-21-10-21-24 0-15 8-25 21-25 12 0 20 11 20 23zm-74 88h33v-52h1c6 11 19 15 30 15 29 0 44-23 44-51 0-24-15-49-41-49-15 0-29 6-36 20v-17h-31v134zm153-69c0-9 9-13 20-13l14 1c0 11-8 22-20 22-8 0-14-3-14-10zm67 30c-2-7-2-15-2-22v-36c0-29-21-40-46-40-14 0-26 2-38 7l1 22c9-5 20-7 30-7 12 0 22 4 22 17l-15-1c-18 0-50 3-50 32 0 21 17 30 36 30 14 0 23-5 30-17h1v15h31zm15 39 20 2c30 0 38-23 47-47l35-89h-33l-20 62-21-62h-35l39 98c-3 8-9 13-17 13l-13-2-3 25z"/><path fill="#ff0007" d="M109 190c0-14 6-24 19-24 15 0 21 11 21 22 0 15-9 25-21 25-10 0-19-9-19-24zm72-48h-30v18c-7-12-19-20-33-20-30 0-43 22-43 50s16 48 42 48c14 0 25-5 33-16v5c0 19-10 28-29 28-14 0-23-3-33-8l-1 26c7 3 20 6 36 6 39 0 58-13 58-52v-85zm56-39h-33v24h33v-25zm-33 135h33v-96h-33v96zm125-97-11-1c-15 0-23 8-29 20v-18h-30v96h33v-40c0-19 9-30 24-30l11 1 2-28zm57 76c-15 0-22-13-22-27s7-27 22-27 21 13 21 27-6 27-21 27zm0 23c32 0 56-18 56-50 0-31-24-50-56-50s-56 19-56 50c0 32 24 50 56 50z"/></svg>