<svg xmlns="http://www.w3.org/2000/svg" xml:space="preserve" id="Layer_1" x="0" y="0" version="1.1" viewBox="0 0 468 223"><path d="M414 113c0-25-12-45-36-45s-38 20-38 45c0 30 17 46 41 46 12 0 21-3 28-7v-20c-7 3-15 6-25 6-9 0-18-4-19-16h49v-9zm-49-9c0-11 7-16 13-16s12 5 12 16h-25zM301 68c-10 0-16 4-19 7l-2-6h-22v117l25-6v-28c4 3 9 6 18 6 18 0 34-14 34-46 0-29-16-44-34-44zm-6 69c-6 0-9-3-12-5V95c3-3 6-5 12-5 9 0 15 10 15 23 1 14-6 24-15 24zM224 62l25-6V36l-25 5zM224 69h25v88h-25zM197 77l-2-8h-21v88h25V98c6-8 16-7 19-6V69c-3-1-15-3-21 8zM147 48l-24 5-1 80c0 15 12 26 26 26 9 0 15-2 18-4v-20c-3 1-19 6-19-9V91h19V69h-19V48zM79 95c0-4 3-6 9-6 7 0 17 3 25 7V72c-9-3-17-4-25-4-20 0-34 10-34 28 0 28 38 23 38 35 0 5-4 6-10 6-8 0-18-3-27-8v24c9 4 19 6 27 6 21 0 36-11 36-29-1-29-39-24-39-35z" class="st0"/></svg>