<svg xmlns="http://www.w3.org/2000/svg" xml:space="preserve" viewBox="0 0 100 125"><path d="m15 64-1 1v1l-1-1-3-4 1-1h1l3 4zm48-45 4 1h2l-1-2-5-1-1 1 1 1zM8 47s1 0 0 0l2-1v-5l-1-1-1 1v6zm2 8v-4l-2-1v6l1 1h1v-2zm62-33 4 3h1v-2l-4-2h-2l1 1zm15 23v5l1 1 1-1v-5l-1-1-1 1zM16 29h1l3-4 1-1h-2l-4 3 1 2zm72 25h1-1zm-2-14 1 1h1v-1l-1-5-2-1v2l1 4zm-4-8h2v-2l-3-3h-2v1c1 1 3 2 3 4zm-72 5h2l2-4v-2h-2l-2 5v1zm8 31h-2v1l4 4h1v-2l-3-3zm35-49h5l1-1-1-1h-5l-1 1 1 1zm6 58h-5l-1 1 1 1h5l1-1-1-1zM43 19h5l1-1-1-1h-5l-1 1 1 1zm20 58v1-1zm-14 0h-5l-1 1 1 1h5l1-1-1-1zM24 23l5-2v-2h-1l-5 2v1l1 1zm15 54h-1l-4-1-1 1 1 1 4 1h1l1-1-1-1zm-9-2-5-2-1 1v1l5 2 1-1v-1zm3-55 5-1 1-1-1-1-5 1-1 1 1 1zm28 48v5H38c-13 0-25-12-25-25 0-14 12-25 25-25h20c14 0 25 11 25 25v3l-5-1c-10 1-17 8-17 18zm-3-22L44 36c-2-2-4 0-4 1v21c0 2 2 3 4 2l14-10v-4zm35 22a15 15 0 1 1-30 0 15 15 0 0 1 30 0zm-16 3h-5c-1 0-3-1-3-3l3-3h4v-3h-4a6 6 0 0 0 0 12h4v-3zm4-1 1-2-1-1h-6l-1 1 1 2h6zm8-2c0-3-2-6-5-6h-5v3h5l2 3c0 2-1 3-2 3h-5v3h5c3 0 5-3 5-6z"/><text y="115" font-family="'Helvetica Neue', Helvetica, Arial-Unicode, Arial, Sans-serif" font-size="5" font-weight="bold">Created by Pravin Unagar</text><text y="120" font-family="'Helvetica Neue', Helvetica, Arial-Unicode, Arial, Sans-serif" font-size="5" font-weight="bold">from the Noun Project</text></svg>