<svg xmlns="http://www.w3.org/2000/svg" viewBox="0 0 392.5 392.5" xml:space="preserve"><path d="M360 147H33c-6 0-11 5-11 11v76c0 6 5 11 11 11h327c6 0 11-5 11-11v-76c0-6-5-11-11-11z" fill="#ffc10d"/><g fill="#fff"><path d="M104 126c3-14 6-27 10-38l-48-8c-12 13-22 29-29 46h67zM185 93l-49-3c-4 11-7 23-9 35h58V93zM85 62l37 5c6-15 13-27 21-37-21 7-41 18-58 32zM185 24c-15 5-29 21-40 45l40 2V24zM279 88c4 11 7 24 9 38h68c-8-17-18-32-30-46l-47 8zM307 62c-17-14-36-25-57-32 8 10 15 23 21 37l36-5zM256 90c-16 2-32 3-49 3v33h59l-10-36zM207 71l41-2c-11-24-26-40-41-45v47zM288 267c-2 13-6 26-9 38l47 7c12-13 22-28 30-45h-68zM207 369c15-6 30-22 41-46l-41-1v47zM207 300l49 2c4-10 7-22 10-35h-59v33zM307 331l-36-5c-6 14-14 26-21 36 21-6 40-17 57-31zM185 322l-40 1c11 24 25 40 40 46v-47zM37 267c7 17 17 32 29 45l48-7-10-38H37zM136 302l49-2v-33h-58c2 13 5 25 9 35zM122 326l-37 5c17 14 37 25 58 31-8-10-15-22-21-36z"/></g><g fill="#194f82"><path d="M383 135a197 197 0 0 0-373 0c-6 6-10 14-10 23v76c0 9 4 17 9 23 30 83 103 136 187 136s160-54 187-135c6-6 10-15 10-24v-76c0-9-4-17-10-23zm-27-9h-68c-2-14-6-27-9-38l47-8c12 13 22 29 30 46zm-49-64-36 5c-6-15-14-27-21-37 21 7 40 18 57 32zM207 24c15 5 30 21 41 45l-41 2V24zm0 69c17 0 33-1 49-3l10 35h-59V93zm-22-69v47l-40-2c11-24 25-40 40-45zm0 69v33h-58c2-13 5-25 9-36 16 2 33 3 49 3zm-42-63c-8 10-15 22-21 37l-37-5c17-14 37-25 58-32zM66 80l48 8c-4 11-7 24-10 38H37c7-17 17-33 29-46zM37 267h67l10 38-48 7c-12-13-22-28-29-45zm48 64 37-5c6 14 13 26 21 36-21-6-41-17-58-31zm100 38c-15-6-29-22-40-46l40-1v47zm0-69-49 2c-3-10-7-22-9-35h59v33h-1zm22 69v-47l41 1c-11 24-26 40-41 46zm0-69v-33h59c-3 13-6 25-10 35l-49-2zm43 62c8-10 15-22 21-36l36 5c-17 14-36 25-57 31zm76-50-47-7 9-38h68c-8 17-18 32-30 45zm34-67H33c-6 0-11-5-11-11v-76c0-6 5-11 11-11h327c6 0 11 5 11 11v76c0 6-5 11-11 11z"/><path d="m121 202-11-34H95l-11 34-11-34H57l19 56h16l10-30 11 30h16l19-56h-16zM215 202l-11-34h-15l-11 34-11-34h-16l19 56h16l10-30 10 30h17l19-56h-17zM308 202l-10-34h-15l-11 34-11-34h-16l19 56h16l10-30 10 30h17l19-56h-17z"/></g><g fill="#56ace0"><path d="M271 326zM121 326h1-1zM271 67v-1 1zM122 66l-1 1h1v-1zM71 267c7 15 16 28 28 40l15-2-10-38H71zM71 267zM185 267h-58c2 13 5 25 9 35l49-2v-33zM288 267c-2 13-6 26-9 38l15 2c11-12 21-25 28-40h-34zM145 69l40 2V44c-10 1-20 3-29 6l-11 19zM207 348c10 0 20-2 30-6l11-19-41-1v26zM207 300l49 2c4-10 7-22 10-35h-59v33zM207 93v33h59l-10-36c-16 2-32 3-49 3zM237 50l-30-6v27l41-2-11-19zM156 342c9 4 19 6 29 6v-26l-40 1 11 19zM322 126c-7-15-17-29-28-40l-15 2 9 38h34zM104 126c3-14 6-27 10-38l-15-2c-12 11-21 25-28 39h33v1zM127 126h58V93l-49-3c-4 11-7 23-9 36z"/></g></svg>