<svg width="20" height="20" viewBox="0 0 20 20" fill="none" xmlns="http://www.w3.org/2000/svg">
<path d="M18.8208 4.53581C18.1719 4.81572 17.4657 5.01717 16.7384 5.09563C17.4935 4.647 18.059 3.93824 18.3288 3.10232C17.6202 3.52386 16.8439 3.81946 16.0344 3.97599C15.696 3.61428 15.2868 3.32613 14.8322 3.12948C14.3777 2.93284 13.8875 2.83192 13.3922 2.83302C11.3883 2.83302 9.77667 4.45735 9.77667 6.45065C9.77667 6.73056 9.8106 7.01047 9.86574 7.27978C6.86518 7.12286 4.18906 5.68938 2.40993 3.49462C2.08576 4.04833 1.91588 4.67879 1.91797 5.3204C1.91797 6.57576 2.55625 7.68268 3.52958 8.33369C2.95598 8.3111 2.39582 8.15344 1.89464 7.87353V7.91806C1.89464 9.67599 3.13728 11.1328 4.79342 11.4678C4.48246 11.5486 4.16257 11.5899 3.84129 11.5908C3.60592 11.5908 3.38326 11.5675 3.15848 11.5357C3.61652 12.9692 4.95033 14.0104 6.53862 14.0443C5.29598 15.0176 3.73951 15.5902 2.04944 15.5902C1.74621 15.5902 1.46629 15.5796 1.17578 15.5456C2.77891 16.5741 4.68103 17.1678 6.72946 17.1678C13.3795 17.1678 17.0183 11.6587 17.0183 6.87688C17.0183 6.71996 17.0183 6.56304 17.0077 6.40612C17.7117 5.89083 18.3288 5.25255 18.8208 4.53581Z" fill="#2AA3EF"/>
</svg>
