<svg xmlns="http://www.w3.org/2000/svg" width="1000" height="324" viewBox="0 0 1000 323.7"><g transform="matrix(4.4299631 0 0 4.4299631 -81.165783 -105.04783)"><polygon points="116.1 95.7 97.9 95.7 109.3 25 127.6 25 " fill="#00579f"/><path d="m182.4 26.7c-3.6-1.4-9.3-3-16.4-3-18.1 0-30.8 9.6-30.9 23.4-0.1 10.2 9.1 15.8 16 19.2 7.1 3.5 9.5 5.7 9.5 8.8-0.1 4.7-5.7 6.9-11 6.9-7.3 0-11.2-1.1-17.2-3.8l-2.4-1.1-2.6 15.9c4.3 2 12.2 3.7 20.4 3.8 19.2 0 31.7-9.5 31.8-24.2 0.1-8.1-4.8-14.2-15.3-19.3-6.4-3.2-10.3-5.4-10.3-8.7 0.1-3 3.3-6.1 10.5-6.1 5.9-0.2 10.3 1.3 13.6 2.7l1.7 0.8 2.5-15.3 0 0z" fill="#00579f"/><path d="m206.7 70.7c1.5-4.1 7.3-19.8 7.3-19.8-0.1 0.2 1.5-4.1 2.4-6.8l1.3 6.1c0 0 3.5 16.9 4.2 20.5-2.9 0-11.6 0-15.2 0l0 0zm22.6-45.7-14.1 0c-4.4 0-7.7 1.3-9.6 5.9l-27.2 64.9 19.2 0c0 0 3.2-8.7 3.8-10.6 2.1 0 20.8 0 23.5 0 0.5 2.5 2.2 10.6 2.2 10.6l16.9 0-14.8-70.7 0 0z" fill="#00579f"/><path d="M82.6 25 64.7 73.2 62.7 63.4C59.4 52.2 49 39.9 37.4 33.8l16.4 61.8 19.3 0 28.7-70.6-19.3 0 0 0z" fill="#00579f"/><path d="m48 25-29.4 0-0.3 1.4c23 5.9 38.2 20 44.4 37L56.3 30.9c-1.1-4.5-4.3-5.8-8.3-5.9l0 0z" fill="#faa61a"/></g></svg>