<svg xmlns="http://www.w3.org/2000/svg" viewBox="0 0 1000 324"><path fill="#00579f" d="M433 320h-80L402 6h84zM727 13c-16-6-41-13-73-13-80 0-136 42-137 104 0 45 41 70 71 85 32 15 42 25 42 39 0 20-25 30-48 30-33 0-50-5-77-17l-10-4-12 70c19 9 54 16 91 17 85 0 140-42 140-107 1-36-21-63-67-86-29-14-46-24-46-38s15-27 47-27c26-1 45 5 60 11l7 4 11-68zM835 208l32-88 10-30 6 27 19 91h-67zM935 6h-63c-19 0-34 5-42 26L709 319h85l17-47h104l10 47h75L934 6zM285 6l-80 213-8-43C182 126 136 72 85 45l72 273h86L370 6h-86z"/><path fill="#faa61a" d="M131 6H1l-1 6c102 26 169 89 197 164L168 32c-5-20-19-26-37-26z"/></svg>