<svg width="19" height="20" viewBox="0 0 19 20" fill="none" xmlns="http://www.w3.org/2000/svg">
<path d="M9.49899 7.52653C8.13707 7.52653 7.02565 8.63795 7.02565 9.99987C7.02565 11.3618 8.13707 12.4732 9.49899 12.4732C10.8609 12.4732 11.9723 11.3618 11.9723 9.99987C11.9723 8.63795 10.8609 7.52653 9.49899 7.52653ZM16.9172 9.99987C16.9172 8.97565 16.9264 7.96071 16.8689 6.93834C16.8114 5.75084 16.5405 4.69694 15.6721 3.82858C14.8019 2.95836 13.7499 2.68932 12.5624 2.6318C11.5381 2.57428 10.5232 2.58356 9.50084 2.58356C8.47663 2.58356 7.46168 2.57428 6.43932 2.6318C5.25182 2.68932 4.19792 2.96022 3.32956 3.82858C2.45934 4.69879 2.1903 5.75084 2.13278 6.93834C2.07526 7.96256 2.08454 8.9775 2.08454 9.99987C2.08454 11.0222 2.07526 12.039 2.13278 13.0614C2.1903 14.2489 2.4612 15.3028 3.32956 16.1712C4.19977 17.0414 5.25182 17.3104 6.43932 17.3679C7.46354 17.4255 8.47848 17.4162 9.50084 17.4162C10.5251 17.4162 11.54 17.4255 12.5624 17.3679C13.7499 17.3104 14.8038 17.0395 15.6721 16.1712C16.5423 15.3009 16.8114 14.2489 16.8689 13.0614C16.9283 12.039 16.9172 11.0241 16.9172 9.99987ZM9.49899 13.8054C7.39303 13.8054 5.69342 12.1058 5.69342 9.99987C5.69342 7.89391 7.39303 6.1943 9.49899 6.1943C11.6049 6.1943 13.3046 7.89391 13.3046 9.99987C13.3046 12.1058 11.6049 13.8054 9.49899 13.8054ZM13.4604 6.92721C12.9687 6.92721 12.5716 6.53014 12.5716 6.03844C12.5716 5.54674 12.9687 5.14967 13.4604 5.14967C13.9521 5.14967 14.3492 5.54674 14.3492 6.03844C14.3493 6.1552 14.3264 6.27084 14.2818 6.37873C14.2372 6.48663 14.1718 6.58467 14.0892 6.66722C14.0066 6.74978 13.9086 6.81524 13.8007 6.85986C13.6928 6.90447 13.5772 6.92736 13.4604 6.92721Z" fill="#FFA740"/>
</svg>
